<svg xmlns="http://www.w3.org/2000/svg" width="1440" height="760" viewBox="0 0 1440 760" role="img" aria-labelledby="chart-title chart-desc">
<title id="chart-title">Fact-check source distribution</title>
<desc id="chart-desc">Top raw Fact_Check_Source values in sheet A. Horizontal bars report records.</desc>
<rect width="1440" height="760" fill="#FFFFFF"/>

<style>
  .title { font: 600 28px Arial, Helvetica, sans-serif; fill: #1F2937; }
  .subtitle { font: 15px Arial, Helvetica, sans-serif; fill: #6C757D; }
  .axis { font: 13px Arial, Helvetica, sans-serif; fill: #1F2937; }
  .small { font: 12px Arial, Helvetica, sans-serif; fill: #6C757D; }
  .value { font: 13px Arial, Helvetica, sans-serif; fill: #1F2937; }
  .axis-line { stroke: #6C757D; stroke-width: 1.2; }
  .grid { stroke: #D9E1E8; stroke-width: 1; }
</style>
<text x="60.0" y="54.0" class="title" text-anchor="start">Fact-check source distribution</text>
<text x="60.0" y="82.0" class="subtitle" text-anchor="start">Top raw Fact_Check_Source values in sheet A</text>
<line x1="410.0" y1="145" x2="410.0" y2="680" class="grid"/>
<text x="410.0" y="718.0" class="small" text-anchor="middle">0</text>
<line x1="582.0" y1="145" x2="582.0" y2="680" class="grid"/>
<text x="582.0" y="718.0" class="small" text-anchor="middle">2,181</text>
<line x1="754.0" y1="145" x2="754.0" y2="680" class="grid"/>
<text x="754.0" y="718.0" class="small" text-anchor="middle">4,361</text>
<line x1="926.0" y1="145" x2="926.0" y2="680" class="grid"/>
<text x="926.0" y="718.0" class="small" text-anchor="middle">6,542</text>
<line x1="1098.0" y1="145" x2="1098.0" y2="680" class="grid"/>
<text x="1098.0" y="718.0" class="small" text-anchor="middle">8,722</text>
<line x1="1270.0" y1="145" x2="1270.0" y2="680" class="grid"/>
<text x="1270.0" y="718.0" class="small" text-anchor="middle">10,903</text>
<line x1="410" y1="680" x2="1270" y2="680" class="axis-line"/>
<text x="394.0" y="167.5" class="axis" text-anchor="end">Factcrescendo.com</text>
<rect x="410.0" y="151.1" width="860.0" height="22.8" fill="#009E73" opacity="1.000"/>
<text x="1282.0" y="167.5" class="value" text-anchor="start">10,903</text>
<text x="394.0" y="203.2" class="axis" text-anchor="end">Alt News</text>
<rect x="410.0" y="186.7" width="263.7" height="22.8" fill="#009E73" opacity="1.000"/>
<text x="685.7" y="203.2" class="value" text-anchor="start">3,343</text>
<text x="394.0" y="238.8" class="axis" text-anchor="end">India Today</text>
<rect x="410.0" y="222.4" width="196.8" height="22.8" fill="#009E73" opacity="1.000"/>
<text x="618.8" y="238.8" class="value" text-anchor="start">2,495</text>
<text x="394.0" y="274.5" class="axis" text-anchor="end">Boomlive.in</text>
<rect x="410.0" y="258.1" width="179.2" height="22.8" fill="#009E73" opacity="1.000"/>
<text x="601.2" y="274.5" class="value" text-anchor="start">2,272</text>
<text x="394.0" y="310.2" class="axis" text-anchor="end">Youturn.in</text>
<rect x="410.0" y="293.7" width="150.1" height="22.8" fill="#009E73" opacity="1.000"/>
<text x="572.1" y="310.2" class="value" text-anchor="start">1,903</text>
<text x="394.0" y="345.8" class="axis" text-anchor="end">dfrac.org</text>
<rect x="410.0" y="329.4" width="71.2" height="22.8" fill="#009E73" opacity="1.000"/>
<text x="493.2" y="345.8" class="value" text-anchor="start">903</text>
<text x="394.0" y="381.5" class="axis" text-anchor="end">OpIndia</text>
<rect x="410.0" y="365.1" width="51.3" height="22.8" fill="#009E73" opacity="1.000"/>
<text x="473.3" y="381.5" class="value" text-anchor="start">650</text>
<text x="394.0" y="417.2" class="axis" text-anchor="end">IndiaSpend</text>
<rect x="410.0" y="400.7" width="41.3" height="22.8" fill="#009E73" opacity="1.000"/>
<text x="463.3" y="417.2" class="value" text-anchor="start">524</text>
<text x="394.0" y="452.8" class="axis" text-anchor="end">factchecker.in</text>
<rect x="410.0" y="436.4" width="41.3" height="22.8" fill="#009E73" opacity="1.000"/>
<text x="463.3" y="452.8" class="value" text-anchor="start">524</text>
<text x="394.0" y="488.5" class="axis" text-anchor="end">Vishvasnews</text>
<rect x="410.0" y="472.1" width="40.5" height="22.8" fill="#009E73" opacity="1.000"/>
<text x="462.5" y="488.5" class="value" text-anchor="start">513</text>
<text x="394.0" y="524.2" class="axis" text-anchor="end">SM Hoax Slayer</text>
<rect x="410.0" y="507.7" width="38.7" height="22.8" fill="#009E73" opacity="1.000"/>
<text x="460.7" y="524.2" class="value" text-anchor="start">491</text>
<text x="394.0" y="559.8" class="axis" text-anchor="end">The Times of India</text>
<rect x="410.0" y="543.4" width="32.9" height="22.8" fill="#009E73" opacity="1.000"/>
<text x="454.9" y="559.8" class="value" text-anchor="start">417</text>
<text x="394.0" y="595.5" class="axis" text-anchor="end">Scroll.in</text>
<rect x="410.0" y="579.1" width="25.6" height="22.8" fill="#009E73" opacity="1.000"/>
<text x="447.6" y="595.5" class="value" text-anchor="start">324</text>
<text x="394.0" y="631.2" class="axis" text-anchor="end">Newsmobile.in</text>
<rect x="410.0" y="614.7" width="15.8" height="22.8" fill="#009E73" opacity="1.000"/>
<text x="437.8" y="631.2" class="value" text-anchor="start">200</text>
<text x="394.0" y="666.8" class="axis" text-anchor="end">thip.media</text>
<rect x="410.0" y="650.4" width="15.7" height="22.8" fill="#009E73" opacity="1.000"/>
<text x="437.7" y="666.8" class="value" text-anchor="start">199</text>
<text x="840.0" y="744.0" class="axis" text-anchor="middle">records</text>
</svg>